<?xml version="1.0" encoding="utf-8"?>
<!-- Generator: Adobe Illustrator 25.0.0, SVG Export Plug-In . SVG Version: 6.00 Build 0)  -->
<svg version="1.1" id="Ebusco_logo" xmlns="http://www.w3.org/2000/svg" xmlns:xlink="http://www.w3.org/1999/xlink" x="0px"
	 y="0px" width="220px" height="27.6px" viewBox="0 0 220 27.6" style="enable-background:new 0 0 220 27.6;" xml:space="preserve">
<style type="text/css">
	.st0{fill-rule:evenodd;clip-rule:evenodd;fill:#99623E;}
	.st1{fill:#99623E;}
</style>
<polygon id="E" class="st0" points="27,21.7 22,27.2 -0.1,27.2 -0.1,5.9 27,5.9 22,11.4 7.7,11.4 7.7,13.7 25.8,13.7 20.8,19.1 
	7.7,19.1 7.7,21.7 "/>
<path id="B" class="st1" d="M60.8,16.6c1.5,1.1,2.2,2.4,2.2,3.8c0,1-0.4,2-1.2,2.9c-1.1,1.3-2.7,2.2-4.9,2.9c-1.9,0.6-4,0.8-6.3,0.8
	H29.8V13.9h21.6c0.6,0,1.2-0.1,1.8-0.2c0.8-0.2,1.1-0.6,1.1-1c0-0.5-0.4-0.8-1.1-1c-0.6-0.2-1.2-0.2-1.8-0.2H29.8l5.2-5.5h15.6
	c2.3,0,4.5,0.3,6.3,0.9c2.1,0.7,3.7,1.6,4.8,2.9c0.8,1,1.2,2,1.2,3C63,14.1,62.3,15.5,60.8,16.6z M51.4,19.4H37.6v2.3h13.8
	c0.8,0,1.6-0.1,2.3-0.2c1.1-0.2,1.6-0.5,1.6-0.9c0-0.4-0.5-0.7-1.6-0.9C53,19.5,52.2,19.4,51.4,19.4z"/>
<path id="U" class="st0" d="M98.6,17.8c0,6.5-5.2,9.8-15.6,9.8h-1.6c-10.4,0-15.6-3.3-15.6-9.8V6h7.7v11.7c0,2,1,3.2,3,3.8
	c1.1,0.3,3.2,0.5,6.5,0.5c2.6,0,4.5-0.2,5.6-0.7c1.5-0.6,2.3-1.8,2.3-3.5V6h7.8V17.8z"/>
<path id="S" class="st0" d="M133.9,5.9l-5,5.5h-17.7c-1,0-1.4,0.3-1.4,0.8c0,0.6,0.5,0.8,1.4,0.8H124c3,0,5.6,0.6,7.6,1.9
	c2.1,1.3,3.2,3.1,3.2,5.2c0,2.1-1.1,3.8-3.2,5.1c-2,1.2-4.5,1.9-7.6,1.9h-22.9l5-5.5H124c0.8,0,1.5-0.1,2.2-0.3
	c0.8-0.3,1.2-0.7,1.2-1.2s-0.4-0.9-1.2-1.2c-0.6-0.2-1.4-0.3-2.2-0.3h-12.7c-2.8,0-5.2-0.6-7.1-1.6c-2-1.2-3-2.8-3-4.7
	c0-2,1-3.6,3-4.7c1.9-1.1,4.2-1.6,7.1-1.6H133.9z"/>
<path id="C" class="st0" d="M169.4,21.7l-5,5.5h-12.5c-4.3,0-8-1-10.8-3.1c-2.9-2.1-4.3-4.6-4.3-7.7s1.4-5.6,4.2-7.6
	c2.8-1.9,6.4-2.9,10.8-2.9h17.5l-5,5.5h-12.5c-2.1,0-3.9,0.5-5.3,1.5c-1.4,1-2.1,2.2-2.1,3.7c0,1.5,0.7,2.7,2.1,3.7
	c1.4,1,3.1,1.4,5.3,1.4L169.4,21.7L169.4,21.7z"/>
<path id="O" class="st1" d="M209.7,16.3c0,3.2-1.4,5.8-4.3,7.8c-2.9,2.1-6.5,3.1-10.9,3.1h-7.6c-4.4,0-8.1-1-10.9-3.1
	c-2.9-2.1-4.3-4.7-4.3-7.8c0-3.2,1.4-5.7,4.3-7.6c2.9-2,6.5-2.9,11-2.9h7.6c4.5,0,8.1,1,10.9,2.9C208.3,10.7,209.7,13.2,209.7,16.3z
	 M194.4,11.3h-7.6c-2.2,0-3.9,0.5-5.4,1.5c-1.4,1-2.1,2.3-2.1,3.8c0,1.5,0.7,2.8,2.1,3.7c1.4,1,3.2,1.4,5.4,1.4h7.6
	c2.2,0,3.9-0.5,5.4-1.4c1.4-1,2.1-2.2,2.1-3.7s-0.7-2.8-2.1-3.8S196.6,11.3,194.4,11.3z"/>
<path id="R" class="st1" d="M213.9,0c3.3,0,5.9,2.6,5.9,5.8c0,3.3-2.6,5.8-5.9,5.8c-3.3,0-6-2.5-6-5.8C207.9,2.6,210.6,0,213.9,0
	L213.9,0z M213.8,1.2c-2.5,0-4.5,2.1-4.5,4.6c0,2.6,1.9,4.6,4.5,4.6c2.5,0,4.4-2,4.4-4.6C218.3,3.2,216.4,1.2,213.8,1.2z M213,8.8
	h-1.4V3c0.5-0.1,1.3-0.2,2.2-0.2c1.1,0,1.6,0.2,2,0.5c0.3,0.2,0.6,0.7,0.6,1.2c0,0.7-0.5,1.2-1.2,1.4V6c0.6,0.2,0.9,0.6,1.1,1.4
	c0.2,0.9,0.3,1.2,0.4,1.4h-1.5c-0.2-0.2-0.3-0.7-0.5-1.4c-0.1-0.6-0.5-0.9-1.2-0.9H213V8.8z M213,5.5h0.6c0.7,0,1.4-0.2,1.4-0.8
	c0-0.5-0.4-0.9-1.2-0.9c-0.3,0-0.6,0-0.7,0.1V5.5z"/>
</svg>
